<mxfile host="app.diagrams.net" modified="2023-12-20T14:35:56.267Z" agent="Mozilla/5.0 (Windows NT 10.0; Win64; x64) AppleWebKit/537.36 (KHTML, like Gecko) Chrome/120.0.0.0 Safari/537.36" etag="2sRQ9q6HRRxp49BA6Qh1" version="22.1.11" type="github">
  <diagram name="Page-1" id="FAYloSDTTYDVObzhy5Y4">
    <mxGraphModel dx="1434" dy="1880" grid="1" gridSize="10" guides="1" tooltips="1" connect="1" arrows="1" fold="1" page="1" pageScale="1" pageWidth="850" pageHeight="1100" background="#ffffff" math="0" shadow="0">
      <root>
        <mxCell id="0" />
        <mxCell id="1" parent="0" />
        <mxCell id="4K18NPuj7CFa846aqN2v-4" value="" style="rounded=0;whiteSpace=wrap;html=1;fillColor=#bac8d3;strokeColor=#23445d;" parent="1" vertex="1">
          <mxGeometry x="40" y="-216" width="310" height="253" as="geometry" />
        </mxCell>
        <mxCell id="4K18NPuj7CFa846aqN2v-17" value="&lt;b&gt;Node&lt;/b&gt;" style="text;html=1;strokeColor=none;fillColor=none;align=center;verticalAlign=middle;whiteSpace=wrap;rounded=0;" parent="1" vertex="1">
          <mxGeometry x="180" y="-216" width="60" height="30" as="geometry" />
        </mxCell>
        <mxCell id="4K18NPuj7CFa846aqN2v-19" value="kubelet" style="sketch=0;html=1;dashed=0;whitespace=wrap;fillColor=#2875E2;strokeColor=#ffffff;points=[[0.005,0.63,0],[0.1,0.2,0],[0.9,0.2,0],[0.5,0,0],[0.995,0.63,0],[0.72,0.99,0],[0.5,1,0],[0.28,0.99,0]];verticalLabelPosition=bottom;align=center;verticalAlign=top;shape=mxgraph.kubernetes.icon;prIcon=kubelet;spacing=-4;fontSize=11;" parent="1" vertex="1">
          <mxGeometry x="250" y="-158" width="70" height="70" as="geometry" />
        </mxCell>
        <mxCell id="4K18NPuj7CFa846aqN2v-20" value="k-proxy" style="sketch=0;html=1;dashed=0;whitespace=wrap;fillColor=#2875E2;strokeColor=#ffffff;points=[[0.005,0.63,0],[0.1,0.2,0],[0.9,0.2,0],[0.5,0,0],[0.995,0.63,0],[0.72,0.99,0],[0.5,1,0],[0.28,0.99,0]];verticalLabelPosition=bottom;align=center;verticalAlign=top;shape=mxgraph.kubernetes.icon;prIcon=k_proxy;fontSize=11;spacing=-4;" parent="1" vertex="1">
          <mxGeometry x="250" y="-60" width="70" height="70" as="geometry" />
        </mxCell>
        <mxCell id="4K18NPuj7CFa846aqN2v-34" value="" style="endArrow=none;html=1;rounded=0;entryX=0.971;entryY=0.471;entryDx=0;entryDy=0;entryPerimeter=0;" parent="1" edge="1">
          <mxGeometry width="50" height="50" relative="1" as="geometry">
            <mxPoint x="374.03" y="-128.55999999999995" as="sourcePoint" />
            <mxPoint x="315" y="-128.58999999999992" as="targetPoint" />
          </mxGeometry>
        </mxCell>
        <mxCell id="4K18NPuj7CFa846aqN2v-35" value="" style="endArrow=none;html=1;rounded=0;entryX=0.971;entryY=0.471;entryDx=0;entryDy=0;entryPerimeter=0;" parent="1" edge="1">
          <mxGeometry width="50" height="50" relative="1" as="geometry">
            <mxPoint x="374" y="-28" as="sourcePoint" />
            <mxPoint x="315" y="-28" as="targetPoint" />
          </mxGeometry>
        </mxCell>
        <mxCell id="4K18NPuj7CFa846aqN2v-36" value="" style="endArrow=none;html=1;rounded=0;jumpSize=9;" parent="1" edge="1">
          <mxGeometry width="50" height="50" relative="1" as="geometry">
            <mxPoint x="374" y="-28" as="sourcePoint" />
            <mxPoint x="374" y="-230" as="targetPoint" />
          </mxGeometry>
        </mxCell>
        <mxCell id="CQpjlojAlUkrmzfvVUWV-9" value="" style="verticalLabelPosition=bottom;verticalAlign=top;html=1;shape=mxgraph.basic.polygon;polyCoords=[[0,0.25],[0.5,0],[1,0.25],[1,0.75],[0.5,1],[0,0.75],[0,0.25]];polyline=1;fillColor=default;perimeter=rectanglePerimeter;" parent="1" vertex="1">
          <mxGeometry x="60" y="-186" width="160" height="182.86" as="geometry" />
        </mxCell>
        <mxCell id="CQpjlojAlUkrmzfvVUWV-1" value="" style="image;sketch=0;aspect=fixed;html=1;points=[];align=center;fontSize=12;image=img/lib/mscae/Docker.svg;" parent="1" vertex="1">
          <mxGeometry x="115" y="-25" width="50" height="41" as="geometry" />
        </mxCell>
        <mxCell id="CQpjlojAlUkrmzfvVUWV-12" value="" style="endArrow=none;dashed=1;html=1;rounded=0;entryX=1.007;entryY=0.394;entryDx=0;entryDy=0;entryPerimeter=0;exitX=0.005;exitY=0.63;exitDx=0;exitDy=0;exitPerimeter=0;" parent="1" source="4K18NPuj7CFa846aqN2v-19" target="CQpjlojAlUkrmzfvVUWV-9" edge="1">
          <mxGeometry width="50" height="50" relative="1" as="geometry">
            <mxPoint x="340" y="-148" as="sourcePoint" />
            <mxPoint x="390" y="-198" as="targetPoint" />
          </mxGeometry>
        </mxCell>
        <mxCell id="CQpjlojAlUkrmzfvVUWV-13" value="nginx" style="ellipse;whiteSpace=wrap;html=1;aspect=fixed;fillColor=#D5E8D4;" parent="1" vertex="1">
          <mxGeometry x="90" y="-133" width="40" height="40" as="geometry" />
        </mxCell>
        <mxCell id="CQpjlojAlUkrmzfvVUWV-14" value="nginx" style="ellipse;whiteSpace=wrap;html=1;aspect=fixed;fillColor=#D5E8D4;" parent="1" vertex="1">
          <mxGeometry x="120" y="-83" width="40" height="40" as="geometry" />
        </mxCell>
        <mxCell id="CQpjlojAlUkrmzfvVUWV-15" value="nginx" style="ellipse;whiteSpace=wrap;html=1;aspect=fixed;fillColor=#D5E8D4;" parent="1" vertex="1">
          <mxGeometry x="150" y="-133" width="40" height="40" as="geometry" />
        </mxCell>
        <mxCell id="D5iFVBIH0yphmVlaYRIM-1" value="" style="rounded=0;whiteSpace=wrap;html=1;fillColor=#bac8d3;strokeColor=#23445d;" vertex="1" parent="1">
          <mxGeometry x="420" y="-216" width="310" height="253" as="geometry" />
        </mxCell>
        <mxCell id="-EhpbD9sfLHaLdeywQvq-2" value="ReplicaSet" style="text;html=1;strokeColor=none;fillColor=default;align=center;verticalAlign=middle;whiteSpace=wrap;rounded=0;" parent="1" vertex="1">
          <mxGeometry x="110" y="-152" width="60" height="13" as="geometry" />
        </mxCell>
        <mxCell id="D5iFVBIH0yphmVlaYRIM-2" value="&lt;b&gt;Node&lt;/b&gt;" style="text;html=1;strokeColor=none;fillColor=none;align=center;verticalAlign=middle;whiteSpace=wrap;rounded=0;" vertex="1" parent="1">
          <mxGeometry x="550" y="-216" width="60" height="30" as="geometry" />
        </mxCell>
        <mxCell id="D5iFVBIH0yphmVlaYRIM-3" value="kubelet" style="sketch=0;html=1;dashed=0;whitespace=wrap;fillColor=#2875E2;strokeColor=#ffffff;points=[[0.005,0.63,0],[0.1,0.2,0],[0.9,0.2,0],[0.5,0,0],[0.995,0.63,0],[0.72,0.99,0],[0.5,1,0],[0.28,0.99,0]];verticalLabelPosition=bottom;align=center;verticalAlign=top;shape=mxgraph.kubernetes.icon;prIcon=kubelet;spacing=-4;fontSize=11;" vertex="1" parent="1">
          <mxGeometry x="620" y="-158" width="70" height="70" as="geometry" />
        </mxCell>
        <mxCell id="D5iFVBIH0yphmVlaYRIM-4" value="k-proxy" style="sketch=0;html=1;dashed=0;whitespace=wrap;fillColor=#2875E2;strokeColor=#ffffff;points=[[0.005,0.63,0],[0.1,0.2,0],[0.9,0.2,0],[0.5,0,0],[0.995,0.63,0],[0.72,0.99,0],[0.5,1,0],[0.28,0.99,0]];verticalLabelPosition=bottom;align=center;verticalAlign=top;shape=mxgraph.kubernetes.icon;prIcon=k_proxy;fontSize=11;spacing=-4;" vertex="1" parent="1">
          <mxGeometry x="620" y="-60" width="70" height="70" as="geometry" />
        </mxCell>
        <mxCell id="D5iFVBIH0yphmVlaYRIM-5" value="" style="endArrow=none;html=1;rounded=0;entryX=0.971;entryY=0.471;entryDx=0;entryDy=0;entryPerimeter=0;" edge="1" parent="1">
          <mxGeometry width="50" height="50" relative="1" as="geometry">
            <mxPoint x="744.03" y="-128.55999999999995" as="sourcePoint" />
            <mxPoint x="685" y="-128.58999999999992" as="targetPoint" />
          </mxGeometry>
        </mxCell>
        <mxCell id="D5iFVBIH0yphmVlaYRIM-6" value="" style="endArrow=none;html=1;rounded=0;entryX=0.971;entryY=0.471;entryDx=0;entryDy=0;entryPerimeter=0;" edge="1" parent="1">
          <mxGeometry width="50" height="50" relative="1" as="geometry">
            <mxPoint x="744" y="-28" as="sourcePoint" />
            <mxPoint x="685" y="-28" as="targetPoint" />
          </mxGeometry>
        </mxCell>
        <mxCell id="D5iFVBIH0yphmVlaYRIM-8" value="" style="verticalLabelPosition=bottom;verticalAlign=top;html=1;shape=mxgraph.basic.polygon;polyCoords=[[0,0.25],[0.5,0],[1,0.25],[1,0.75],[0.5,1],[0,0.75],[0,0.25]];polyline=1;fillColor=default;perimeter=rectanglePerimeter;" vertex="1" parent="1">
          <mxGeometry x="430" y="-186" width="160" height="182.86" as="geometry" />
        </mxCell>
        <mxCell id="D5iFVBIH0yphmVlaYRIM-7" value="" style="endArrow=none;html=1;rounded=0;jumpSize=9;" edge="1" parent="1">
          <mxGeometry width="50" height="50" relative="1" as="geometry">
            <mxPoint x="744" y="-28" as="sourcePoint" />
            <mxPoint x="744" y="-230" as="targetPoint" />
          </mxGeometry>
        </mxCell>
        <mxCell id="D5iFVBIH0yphmVlaYRIM-9" value="" style="image;sketch=0;aspect=fixed;html=1;points=[];align=center;fontSize=12;image=img/lib/mscae/Docker.svg;" vertex="1" parent="1">
          <mxGeometry x="485" y="-25" width="50" height="41" as="geometry" />
        </mxCell>
        <mxCell id="D5iFVBIH0yphmVlaYRIM-10" value="" style="endArrow=none;dashed=1;html=1;rounded=0;entryX=1.007;entryY=0.394;entryDx=0;entryDy=0;entryPerimeter=0;exitX=0.005;exitY=0.63;exitDx=0;exitDy=0;exitPerimeter=0;" edge="1" parent="1" source="D5iFVBIH0yphmVlaYRIM-3" target="D5iFVBIH0yphmVlaYRIM-8">
          <mxGeometry width="50" height="50" relative="1" as="geometry">
            <mxPoint x="710" y="-148" as="sourcePoint" />
            <mxPoint x="760" y="-198" as="targetPoint" />
          </mxGeometry>
        </mxCell>
        <mxCell id="D5iFVBIH0yphmVlaYRIM-11" value="nginx" style="ellipse;whiteSpace=wrap;html=1;aspect=fixed;fillColor=#D5E8D4;" vertex="1" parent="1">
          <mxGeometry x="460" y="-133" width="40" height="40" as="geometry" />
        </mxCell>
        <mxCell id="D5iFVBIH0yphmVlaYRIM-13" value="nginx" style="ellipse;whiteSpace=wrap;html=1;aspect=fixed;fillColor=#D5E8D4;" vertex="1" parent="1">
          <mxGeometry x="520" y="-133" width="40" height="40" as="geometry" />
        </mxCell>
        <mxCell id="D5iFVBIH0yphmVlaYRIM-16" value="" style="rounded=0;whiteSpace=wrap;html=1;fillColor=none;dashed=1;strokeColor=#b85450;strokeWidth=3;" vertex="1" parent="1">
          <mxGeometry x="70" y="-170" width="510" height="150" as="geometry" />
        </mxCell>
        <mxCell id="D5iFVBIH0yphmVlaYRIM-17" value="" style="endArrow=none;html=1;rounded=0;" edge="1" parent="1">
          <mxGeometry width="50" height="50" relative="1" as="geometry">
            <mxPoint x="14" y="-230" as="sourcePoint" />
            <mxPoint x="744" y="-230" as="targetPoint" />
          </mxGeometry>
        </mxCell>
        <mxCell id="D5iFVBIH0yphmVlaYRIM-18" value="&lt;font style=&quot;font-size: 15px;&quot;&gt;&lt;b style=&quot;&quot;&gt;Deployment&lt;/b&gt;&lt;/font&gt;" style="text;html=1;strokeColor=none;fillColor=#BAC8D3;align=center;verticalAlign=middle;whiteSpace=wrap;rounded=0;fontColor=#B85450;" vertex="1" parent="1">
          <mxGeometry x="250" y="-187" width="90" height="30" as="geometry" />
        </mxCell>
        <mxCell id="-EhpbD9sfLHaLdeywQvq-1" value="" style="rounded=0;whiteSpace=wrap;html=1;dashed=1;dashPattern=8 8;fillColor=none;" parent="1" vertex="1">
          <mxGeometry x="80" y="-140" width="490" height="111" as="geometry" />
        </mxCell>
      </root>
    </mxGraphModel>
  </diagram>
</mxfile>
